<svg width="99" height="99" viewBox="0 0 99 99" fill="none" xmlns="http://www.w3.org/2000/svg">
	<g clip-path="url(#clip0_2_87)">
		<path
			d="M82.1432 55.1676C81.7904 55.5875 81.2328 55.7657 80.7038 55.6357C80.17 55.5028 79.7616 55.0852 79.6398 54.5537L74.7972 36.4812L63.6147 55.8498C59.0444 63.7658 53.6026 68.5676 47.7369 70.4811C41.8711 72.3946 35.7103 71.3318 29.9815 68.0243C18.8017 61.5696 13.6054 51.6586 13.6054 51.6586C13.3179 51.2003 13.31 50.6177 13.5849 50.1529C13.8597 49.688 14.3723 49.4189 14.9171 49.4541C15.457 49.4865 15.9306 49.8249 16.1454 50.3192C16.1454 50.3192 21.0114 59.5198 31.4215 65.5301C36.6144 68.5283 41.8163 69.3621 46.8338 67.7254C51.8512 66.0886 56.795 61.902 61.1206 54.4098L72.3031 35.0412L54.2306 39.8837C53.7148 40.0795 53.1341 39.9716 52.7283 39.5944C52.3274 39.2201 52.173 38.6438 52.333 38.1191C52.4958 37.5896 52.9448 37.2058 53.4894 37.1175L74.9038 31.3466L76.2952 31.0067L76.6965 32.3816L82.406 53.8125C82.5346 54.231 82.4593 54.6876 82.2107 55.0507C82.1882 55.0897 82.1657 55.1287 82.1432 55.1676Z"
			fill="white" />
	</g>
	<defs>
		<clipPath id="clip0_2_87">
			<rect width="72" height="72" fill="white"
				transform="matrix(0.5 -0.866025 -0.866025 -0.5 62.3538 98.3538)" />
		</clipPath>
	</defs>
</svg>