<svg width="65" height="65" viewBox="0 0 65 65" fill="none" xmlns="http://www.w3.org/2000/svg">
	<path
		d="M59.7945 59.7945C59.7945 60.1393 59.6575 60.4699 59.4138 60.7137C59.17 60.9574 58.8394 61.0944 58.4946 61.0944L40.2963 61.0944C40.1241 61.0969 39.953 61.065 39.7932 61.0008C39.6334 60.9366 39.4879 60.8412 39.3652 60.7203C39.2425 60.5993 39.1451 60.4552 39.0786 60.2963C39.0122 60.1374 38.9779 59.9668 38.9779 59.7945C38.9779 59.6223 39.0122 59.4517 39.0786 59.2928C39.1451 59.1339 39.2425 58.9898 39.3652 58.8688C39.4879 58.7479 39.6334 58.6525 39.7932 58.5883C39.953 58.5241 40.1241 58.4922 40.2963 58.4947L55.4836 58.4947C50.9101 54.2141 45.4797 50.3336 40.997 45.633C38.2476 42.7499 35.9645 39.4453 34.4265 35.6274C17.9481 34.609 6.4994 20.8701 6.4994 6.4385C6.49697 6.26625 6.52879 6.09524 6.59302 5.93539C6.65726 5.77555 6.75262 5.63007 6.87357 5.5074C6.99451 5.38473 7.13863 5.28732 7.29755 5.22083C7.45647 5.15434 7.62702 5.12011 7.79929 5.12011C7.97155 5.12011 8.1421 5.15434 8.30102 5.22083C8.45994 5.28732 8.60406 5.38473 8.72501 5.5074C8.84595 5.63007 8.94131 5.77555 9.00555 5.93539C9.06978 6.09524 9.1016 6.26625 9.09917 6.4385C9.09917 19.1641 18.9778 31.3896 33.4694 32.8753C32.8945 30.7631 32.497 28.5343 32.497 26.0535C32.497 11.4282 41.7963 3.89967 48.5907 3.89967C51.9158 3.89967 54.7686 4.79934 56.7682 6.73808C58.7679 8.67682 59.7945 11.5594 59.7945 15.1162C59.7945 20.9795 56.4579 26.2718 51.7515 30.0065C47.612 33.2913 42.3735 35.3153 37.1253 35.5868C38.51 38.6545 40.4925 41.3362 42.8783 43.838C47.1024 48.2674 52.4645 52.1096 57.1948 56.5347L57.1948 41.5962C57.1923 41.424 57.2241 41.253 57.2884 41.0931C57.3526 40.9333 57.448 40.7878 57.5689 40.6651C57.6899 40.5424 57.834 40.445 57.9929 40.3785C58.1518 40.3121 58.3224 40.2778 58.4946 40.2778C58.6669 40.2778 58.8375 40.3121 58.9964 40.3785C59.1553 40.445 59.2994 40.5424 59.4204 40.6651C59.5413 40.7878 59.6367 40.9333 59.7009 41.0931C59.7651 41.253 59.797 41.424 59.7945 41.5962L59.7945 59.7945ZM57.1948 15.1162C57.1948 12.045 56.3628 9.96611 54.9581 8.60412C53.5533 7.24214 51.4556 6.49944 48.5907 6.49944C43.8317 6.49944 35.0968 12.539 35.0968 26.0535C35.0968 28.6526 35.5754 30.9114 36.2418 33.0429C41.1067 32.9741 46.2037 31.0893 50.1343 27.9703C54.3724 24.6073 57.1948 19.9848 57.1948 15.1162Z"
		fill="white" />
</svg>