<svg width="125" height="62" viewBox="0 0 125 62" fill="none" xmlns="http://www.w3.org/2000/svg">
	<path
		d="M11.904 22.608C9.792 24.56 8.736 27.344 8.736 30.96C8.736 34.576 9.792 37.376 11.904 39.36C14.016 41.312 16.496 42.288 19.344 42.288C22.224 42.288 24.72 41.312 26.832 39.36C28.944 37.376 30 34.576 30 30.96C30 27.344 28.944 24.56 26.832 22.608C24.72 20.624 22.224 19.632 19.344 19.632C16.496 19.632 14.016 20.624 11.904 22.608ZM1.872 31.008C1.872 25.696 3.584 21.408 7.008 18.144C10.432 14.88 14.544 13.248 19.344 13.248C24.176 13.248 28.304 14.88 31.728 18.144C35.152 21.408 36.864 25.696 36.864 31.008C36.864 36.288 35.152 40.56 31.728 43.824C28.304 47.088 24.176 48.72 19.344 48.72C14.544 48.72 10.432 47.088 7.008 43.824C3.584 40.56 1.872 36.288 1.872 31.008ZM120.86 48H115.484L115.052 44.112C114.188 45.424 112.892 46.528 111.164 47.424C109.468 48.288 107.42 48.72 105.02 48.72C100.284 48.72 96.2683 47.104 92.9723 43.872C89.6763 40.64 88.0283 36.352 88.0283 31.008C88.0283 25.696 89.7243 21.408 93.1163 18.144C96.5403 14.88 100.652 13.248 105.452 13.248C109.612 13.248 113.004 14.256 115.628 16.272C118.284 18.288 120.076 20.768 121.004 23.712L114.668 25.968C114.156 24.208 113.116 22.688 111.548 21.408C110.012 20.096 107.98 19.44 105.452 19.44C102.572 19.44 100.06 20.432 97.9163 22.416C95.8043 24.4 94.7483 27.264 94.7483 31.008C94.7483 34.688 95.7723 37.552 97.8203 39.6C99.9003 41.648 102.46 42.672 105.5 42.672C108.316 42.672 110.476 41.968 111.98 40.56C113.484 39.12 114.364 37.616 114.62 36.048H103.868V30.288H120.86V48Z"
		fill="white" />
	<path
		d="M42 26.6854C42 25.0985 43.7595 24.1437 45.09 25.0085L59.82 34.583C61.1456 35.4447 62.8544 35.4447 64.18 34.583L78.91 25.0085C80.2405 24.1437 82 25.0985 82 26.6854V44C82 46.2091 80.2091 48 78 48H46C43.7909 48 42 46.2091 42 44V35.5V26.6854Z"
		fill="white" />
	<path
		d="M42 17.5736C42 16.1522 43.1522 15 44.5736 15H62H79.4264C80.8478 15 82 16.1522 82 17.5736V17.5736C82 18.4609 81.5429 19.2857 80.7904 19.756L64.12 30.175C62.8229 30.9857 61.1771 30.9857 59.88 30.175L43.2096 19.756C42.4571 19.2857 42 18.4609 42 17.5736V17.5736Z"
		fill="white" />
</svg>